<svg id="visual" viewBox="0 0 900 100" width="900" height="100" xmlns="http://www.w3.org/2000/svg" xmlns:xlink="http://www.w3.org/1999/xlink" version="1.1"><rect x="0" y="0" width="900" height="100" fill="#1786ff"></rect><path d="M0 64L21.5 65.7C43 67.3 86 70.7 128.8 70C171.7 69.3 214.3 64.7 257.2 61C300 57.3 343 54.7 385.8 54.8C428.7 55 471.3 58 514.2 62C557 66 600 71 642.8 71.8C685.7 72.7 728.3 69.3 771.2 63.3C814 57.3 857 48.7 878.5 44.3L900 40L900 0L878.5 0C857 0 814 0 771.2 0C728.3 0 685.7 0 642.8 0C600 0 557 0 514.2 0C471.3 0 428.7 0 385.8 0C343 0 300 0 257.2 0C214.3 0 171.7 0 128.8 0C86 0 43 0 21.5 0L0 0Z" fill="#1786ff"></path><path d="M0 21L21.5 22.8C43 24.7 86 28.3 128.8 29.3C171.7 30.3 214.3 28.7 257.2 30.3C300 32 343 37 385.8 40C428.7 43 471.3 44 514.2 42.5C557 41 600 37 642.8 36.2C685.7 35.3 728.3 37.7 771.2 37.7C814 37.7 857 35.3 878.5 34.2L900 33L900 0L878.5 0C857 0 814 0 771.2 0C728.3 0 685.7 0 642.8 0C600 0 557 0 514.2 0C471.3 0 428.7 0 385.8 0C343 0 300 0 257.2 0C214.3 0 171.7 0 128.8 0C86 0 43 0 21.5 0L0 0Z" fill="#ffffff"></path></svg>
