<svg id="visual" viewBox="0 0 900 90" width="900" height="90" xmlns="http://www.w3.org/2000/svg" xmlns:xlink="http://www.w3.org/1999/xlink" version="1.1"><rect x="0" y="0" width="900" height="90" fill="#fff"></rect><path d="M0 64L12.5 60.8C25 57.7 50 51.3 75 46.3C100 41.3 125 37.7 150 35.5C175 33.3 200 32.7 225 34.2C250 35.7 275 39.3 300 38C325 36.7 350 30.3 375 31.8C400 33.3 425 42.7 450 46.8C475 51 500 50 525 48C550 46 575 43 600 39.5C625 36 650 32 675 30.7C700 29.3 725 30.7 750 35C775 39.3 800 46.7 825 48.2C850 49.7 875 45.3 887.5 43.2L900 41L900 91L887.5 91C875 91 850 91 825 91C800 91 775 91 750 91C725 91 700 91 675 91C650 91 625 91 600 91C575 91 550 91 525 91C500 91 475 91 450 91C425 91 400 91 375 91C350 91 325 91 300 91C275 91 250 91 225 91C200 91 175 91 150 91C125 91 100 91 75 91C50 91 25 91 12.5 91L0 91Z" fill="#1786ff" stroke-linecap="round" stroke-linejoin="miter"></path></svg>
